<?xml version="1.0" encoding="UTF-8"?>
<!DOCTYPE svg PUBLIC "-//W3C//DTD SVG 1.1//EN" "http://www.w3.org/Graphics/SVG/1.1/DTD/svg11.dtd">
<!-- Creator: CorelDRAW 2020 (64-Bit) -->
<svg xmlns="http://www.w3.org/2000/svg" xml:space="preserve" width="700mm" height="200mm" version="1.1" style="shape-rendering:geometricPrecision; text-rendering:geometricPrecision; image-rendering:optimizeQuality; fill-rule:evenodd; clip-rule:evenodd"
viewBox="0 0 70000 20000"
 xmlns:xlink="http://www.w3.org/1999/xlink"
 xmlns:xodm="http://www.corel.com/coreldraw/odm/2003">
 <defs>
  <style type="text/css">
   <![CDATA[
    .fil1 {fill:#B1B3B4}
    .fil0 {fill:#FC890A}
    .fil2 {fill:white}
   ]]>
  </style>
 </defs>
 <g id="Capa_x0020_1">
  <metadata id="CorelCorpID_0Corel-Layer"/>
  <g id="_2420734774288">
   <path class="fil0" d="M13907.48 6653.64l2099.84 679.44 47.6 -578.96 1973.92 60.72 22.64 1267.32 790.68 354.84 0 5540.08c-817.76,223.12 -4752.68,92.16 -5882.84,83.84l-357.6 3403 10436.92 1145.56c140.28,-2831.6 741.36,-6336.96 1100.08,-9234.44 241.16,-1947.44 1177.84,-7605.84 1036.04,-9174.64l-10285.2 0 -982.08 6453.24z"/>
   <path class="fil1" d="M1414.36 19426.32l0 388.48 1041.12 0c516.92,-243.96 2455.88,-365.32 4328.8,-555.92 1515.6,-154.24 2997.6,-306.6 4499.72,-466.44l766.36 -4742.8 -4462.68 15.2 0 -5830.32 4286.4 -1248.44c305.32,-92.16 450.48,-130.04 762.8,-207.92 1098.88,-273.96 20.08,203.96 663.28,-222.6 -254.4,-213.96 -330.44,315.36 -59.96,-1432.08 73.88,-477.12 128.08,-884.16 196.92,-1377.48 126,-903 313.16,-1879.16 360.48,-2808.48l-9419.92 -102.04c-482.24,142.28 -489.08,1773.12 -550.64,2204.92 -405.52,2844 -2074.6,15697.24 -2412.68,16385.92z"/>
   <path class="fil2" d="M12050.36 14049.64l908.96 11.28c1130.16,8.32 5065.08,139.28 5882.84,-83.84l0 -5540.08 -790.68 -354.84 -22.64 -1267.32 -1973.92 -60.72 -47.6 578.96 -2099.84 -679.44 -607.32 -98.08c-643.2,426.56 435.6,-51.36 -663.28,222.6 -312.32,77.88 -457.48,115.76 -762.8,207.92l-4286.4 1248.44 0 5830.32 4462.68 -15.2z"/>
   <path class="fil1" d="M40325.92 13464.8l33.08 530.68 1185.36 -24.28 20.68 -5241.92c363.88,333.76 1054.72,4455.76 1255.92,5238.96 1822.72,114.96 1183,137.16 2207.12,-4573.28l176.36 -580.84c14.88,-35.76 41.84,-84.08 54.72,-112.96 13,-29.16 36.08,-76.64 57.76,-112.96l22.52 5380.08 1195.84 31 34.64 -7872.24 -2002.04 0c-127.64,911.44 -847.76,4402.16 -1138.32,5044.12l-1117.2 -5025.32 -1986.6 -18.8 0.16 7337.76z"/>
   <path class="fil1" d="M64879.76 7477.12c2731.08,-970.12 2999.88,4516.96 1045.24,5166.64 -2606.28,866.24 -3055.08,-4452.68 -1045.24,-5166.64zm3703.48 3624.6l0 -1967.84c-401.72,-794.56 -625.04,-3391.76 -3523.4,-3135.88 -3699.72,326.64 -3769.2,7554.12 -159.6,8080.24 1526.32,222.44 2580.08,-416.12 3182.6,-1683.72l500.4 -1292.8z"/>
   <path class="fil1" d="M33766 13968.24l4893.56 28.36 43.24 -1378.44 -3597.48 0 33.48 -2082.4 3212.24 -8.92 -0.16 -1313.68 -3157.76 -57.32c-163.48,-755.32 -99.92,-848.36 -87.8,-1687.64 4126.04,0 3492.44,298.76 3492.44,-1271.2l-4834.32 -69.56 2.56 7840.8z"/>
   <path class="fil1" d="M50884.64 8419.08c8.88,-58.56 38.48,-70.24 59.72,-104.2 61.52,94.6 46.04,30.92 170.4,307.8l649.96 2220.28 -1613.4 10.68 733.32 -2434.56zm-3129.4 5554.52c1411.6,21.08 1427.48,462.2 1927.76,-1770.12l2565.92 -9.8 554.48 1804.2 1379.88 -3.2 -2508.84 -7861.24 -1448.88 -6.4 -2470.32 7846.56z"/>
   <path class="fil1" d="M60848.6 11630.36c-366.6,-289.28 -710.16,-369.44 -1155.36,-520.96 -552.8,658.56 -491.24,1812.08 -1779.64,1591.64 -960.84,-164.4 -1249.2,-1337.88 -1287.88,-2345.36 -136.76,-3560.4 2441.84,-3789 2899.96,-1688.64l1309.28 -365.88c-549.16,-3404.68 -5661.72,-3367.76 -5591.32,1903.96 64.52,4830.4 4892.32,5174.68 5604.96,1425.24z"/>
   <path class="fil1" d="M27698.24 13968.24l1313.2 7.04 26.12 -3332.68 2681.64 -26.44 -0.52 -1261.88 -2593.32 -58.08c-157.36,-725.68 -120.24,-1083.12 -23.6,-1832.56l3040.48 -8.36 -0.24 -1293.64 -4446.4 -31.44 2.64 7838.04z"/>
  </g>
 </g>
</svg>
